<svg id="Capa_1" enable-background="new 0 0 512 512" height="512" viewBox="0 0 512 512" width="512" xmlns="http://www.w3.org/2000/svg"><g><path d="m181 436v30h-30v30h210v-30h-30v-30z"/><path d="m256 286c41.353 0 75-33.647 75-75s-33.647-75-75-75-75 33.647-75 75 33.647 75 75 75zm0-120c24.814 0 45 20.186 45 45s-20.186 45-45 45-45-20.186-45-45 20.186-45 45-45z"/><circle cx="256" cy="211" r="15"/><path d="m0 406h512v-390h-512zm121-210h31.516c2.567-17.701 9.417-33.884 19.684-47.589l-22.269-22.269 21.211-21.211 22.269 22.269c13.705-10.267 29.888-17.117 47.589-19.684v-31.516h30v31.516c17.701 2.567 33.884 9.417 47.589 19.684l22.269-22.269 21.211 21.211-22.269 22.269c10.267 13.705 17.117 29.888 19.684 47.589h31.516v30h-31.516c-2.567 17.701-9.417 33.884-19.684 47.589l22.269 22.269-21.211 21.211-22.269-22.269c-13.705 10.267-29.888 17.117-47.589 19.684v31.516h-30v-31.516c-17.701-2.567-33.884-9.417-47.589-19.684l-22.269 22.269-21.211-21.211 22.269-22.269c-10.267-13.705-17.117-29.888-19.684-47.589h-31.516z"/></g></svg>